<svg xmlns="http://www.w3.org/2000/svg" width="24" height="24" fill="none" style=""><rect id="backgroundrect" width="100%" height="100%" x="0" y="0" fill="none" stroke="none"/>

<g class="currentLayer" style=""><title>Layer 1</title><path fill="" fill-opacity="1" stroke="none" stroke-opacity="1" stroke-width="1" stroke-dasharray="none" stroke-linejoin="miter" stroke-linecap="butt" stroke-dashoffset="" fill-rule="nonzero" opacity="1" marker-start="" marker-mid="" marker-end="" d="M12,10.5 C12,10.223756906077348 12,10 12,10 C12,10 12,10.223756906077348 12,10.5 C12,10.776243093922652 12,11 12,11 C12,11 12,10.776243093922652 12,10.5 Z" id="svg_1" class=""/><rect fill="#ffffff" stroke-dashoffset="" fill-rule="nonzero" id="svg_6" x="8.127262115478516" y="7.703054904937744" width="8" height="8" style="color: rgb(0, 0, 0);" class="" stroke="#ffffff" stroke-opacity="1" opacity="1"/><rect fill="#ffffff" stroke-dashoffset="" fill-rule="nonzero" id="svg_8" x="13" y="13" width="1" height="0" style="color: rgb(0, 0, 0);" class=""/><rect fill="#ffffff" stroke-dashoffset="" fill-rule="nonzero" id="svg_10" x="13" y="11" width="0" height="0" style="color: rgb(0, 0, 0);" class=""/><g id="icn-circle-close" class="">
<path id="Vector" fill-rule="evenodd" clip-rule="evenodd" d="M21.042420726269484,11.957579273730516 C21.042420726269484,16.928179273730517 17.013020726269485,20.957579273730516 12.042420726269484,20.957579273730516 C7.071860726269484,20.957579273730516 3.0424207262694836,16.928179273730517 3.0424207262694836,11.957579273730516 C3.0424207262694836,6.987019273730517 7.071860726269484,2.9575792737305164 12.042420726269484,2.9575792737305164 C17.013020726269485,2.9575792737305164 21.042420726269484,6.987019273730517 21.042420726269484,11.957579273730516 zM15.749520726269484,8.250469273730516 C16.140020726269483,8.640999273730516 16.140020726269483,9.274159273730517 15.749520726269484,9.664689273730517 L13.456620726269483,11.957579273730516 L15.749520726269484,14.250479273730516 C16.140020726269483,14.640979273730517 16.140020726269483,15.274179273730516 15.749520726269484,15.664679273730517 C15.359020726269483,16.055179273730516 14.725820726269484,16.055179273730516 14.335320726269483,15.664679273730517 L12.042420726269484,13.371779273730516 L9.749530726269484,15.664679273730517 C9.359000726269484,16.055179273730516 8.725840726269483,16.055179273730516 8.335310726269483,15.664679273730517 C7.944790726269484,15.274179273730516 7.944790726269484,14.640979273730517 8.335310726269483,14.250479273730516 L10.628220726269484,11.957579273730516 L8.335310726269483,9.664689273730517 C7.944790726269484,9.274159273730517 7.944790726269484,8.640999273730516 8.335310726269483,8.250469273730516 C8.725840726269483,7.859949273730517 9.359000726269484,7.859949273730517 9.749530726269484,8.250469273730516 L12.042420726269484,10.543379273730517 L14.335320726269483,8.250469273730516 C14.725820726269484,7.859949273730517 15.359020726269483,7.859949273730517 15.749520726269484,8.250469273730516 z" fill="#212721"/>
</g></g></svg>