<svg width="24" height="24" viewBox="0 0 24 24" fill="currentColor" xmlns="http://www.w3.org/2000/svg">
<path fill-rule="evenodd" clip-rule="evenodd" d="M12 21C16.9706 21 21 16.9706 21 12C21 7.02944 16.9706 3 12 3C7.02944 3 3 7.02944 3 12C3 16.9706 7.02944 21 12 21ZM15.7295 10.6839C16.1073 10.281 16.0869 9.64819 15.6839 9.27046C15.281 8.89273 14.6482 8.91315 14.2705 9.31606L11.25 12.5379L9.72954 10.9161C9.35181 10.5131 8.71897 10.4927 8.31606 10.8705C7.91315 11.2482 7.89273 11.881 8.27046 12.2839L10.5205 14.6839L11.25 15.4621L11.9795 14.6839L15.7295 10.6839Z"  fill="currentColor"/>
</svg>
