<svg width="18" height="18" viewBox="0 0 18 18" fill="none" xmlns="http://www.w3.org/2000/svg">
<g id="icn-heart-off">
<path id="Icon" fill-rule="evenodd" clip-rule="evenodd" d="M2.85481 4.6547C3.52991 3.97981 4.44542 3.60067 5.40001 3.60067C6.3546 3.60067 7.27011 3.97981 7.94521 4.6547L9.00001 5.7086L10.0548 4.6547C10.3869 4.31086 10.7841 4.03661 11.2234 3.84794C11.6626 3.65926 12.135 3.55995 12.613 3.5558C13.091 3.55165 13.565 3.64273 14.0074 3.82374C14.4499 4.00475 14.8518 4.27207 15.1898 4.61008C15.5278 4.94809 15.7952 5.35004 15.9762 5.79247C16.1572 6.23489 16.2483 6.70894 16.2441 7.18695C16.24 7.66495 16.1406 8.13734 15.952 8.57656C15.7633 9.01577 15.489 9.41301 15.1452 9.7451L9.00001 15.8912L2.85481 9.7451C2.17992 9.07 1.80078 8.15449 1.80078 7.1999C1.80078 6.24531 2.17992 5.3298 2.85481 4.6547V4.6547Z" stroke="current" stroke-width="1.5" stroke-linejoin="round"/>
</g>
</svg>
