<svg width="24" height="24" viewBox="0 0 24 24" fill="none" xmlns="http://www.w3.org/2000/svg">
<path fill-rule="evenodd" clip-rule="evenodd" d="M15.4127 7.44382V14.8013C15.6436 14.8829 15.8668 14.9937 16.0768 15.1337L16.6834 15.5381C17.348 15.9812 18.2381 15.5048 18.2381 14.7061V9.86262C18.2381 9.52827 18.071 9.21604 17.7928 9.03057L15.4127 7.44382ZM13.4127 14.8013V7.44382L11.2514 8.88471C11.0414 9.02468 10.8182 9.13549 10.5873 9.21713V16.5746L12.7486 15.1337C12.9586 14.9937 13.1818 14.8829 13.4127 14.8013ZM7.92317 8.8847C8.13313 9.02468 8.35634 9.13549 8.58727 9.21713V16.8251L6.31463 15.6888C5.97584 15.5194 5.76184 15.1731 5.76184 14.7943V9.31233C5.76184 8.51364 6.65198 8.03725 7.31654 8.48029L7.92317 8.8847ZM12.7486 5.48285C13.7563 4.81106 15.0691 4.81105 16.0768 5.48285L18.9022 7.36647C19.7368 7.92287 20.2381 8.85956 20.2381 9.86262V14.7061C20.2381 17.1022 17.5677 18.5313 15.574 17.2022L14.9674 16.7978C14.6315 16.5739 14.1939 16.5739 13.858 16.7978L11.1077 18.6314C10.2119 19.2285 9.06486 19.2999 8.10194 18.8185L5.4202 17.4776C4.40385 16.9694 3.76184 15.9306 3.76184 14.7943V9.31233C3.76184 6.91624 6.43228 5.48708 8.42594 6.81619L9.03257 7.2206C9.36847 7.44454 9.80607 7.44454 10.142 7.2206L12.7486 5.48285Z" fill="#FF5A5A"/>
<path d="M15.4127 7.44382L15.5514 7.23581L15.1627 6.97669V7.44382H15.4127ZM15.4127 14.8013H15.1627V14.9781L15.3294 15.037L15.4127 14.8013ZM16.0768 15.1337L16.2155 14.9257L16.0768 15.1337ZM16.6834 15.5381L16.5448 15.7461L16.6834 15.5381ZM17.7928 9.03057L17.6542 9.23858L17.7928 9.03057ZM13.4127 14.8013L13.496 15.037L13.6627 14.9781V14.8013H13.4127ZM13.4127 7.44382H13.6627V6.97669L13.274 7.23581L13.4127 7.44382ZM11.2514 8.88471L11.1127 8.67669L11.2514 8.88471ZM10.5873 9.21713L10.5039 8.98143L10.3373 9.04036V9.21713H10.5873ZM10.5873 16.5746H10.3373V17.0417L10.7259 16.7826L10.5873 16.5746ZM12.7486 15.1337L12.6099 14.9257L12.7486 15.1337ZM8.58727 9.21713H8.83727V9.04036L8.6706 8.98143L8.58727 9.21713ZM7.92317 8.8847L8.06184 8.67669V8.67669L7.92317 8.8847ZM8.58727 16.8251L8.47547 17.0487L8.83727 17.2296V16.8251H8.58727ZM6.31463 15.6888L6.20282 15.9124H6.20283L6.31463 15.6888ZM7.31654 8.48029L7.17787 8.6883L7.31654 8.48029ZM16.0768 5.48285L16.2155 5.27484V5.27484L16.0768 5.48285ZM12.7486 5.48285L12.8873 5.69087V5.69087L12.7486 5.48285ZM18.9022 7.36647L18.7636 7.57448L18.9022 7.36647ZM15.574 17.2022L15.4354 17.4102L15.574 17.2022ZM14.9674 16.7978L15.1061 16.5898L14.9674 16.7978ZM13.858 16.7978L13.9967 17.0058H13.9967L13.858 16.7978ZM11.1077 18.6314L11.2464 18.8394H11.2464L11.1077 18.6314ZM8.10194 18.8185L7.99014 19.0421L8.10194 18.8185ZM5.4202 17.4776L5.532 17.254L5.4202 17.4776ZM8.42594 6.81619L8.56462 6.60817V6.60817L8.42594 6.81619ZM9.03257 7.2206L8.89389 7.42862H8.89389L9.03257 7.2206ZM10.142 7.2206L10.0033 7.01259L10.142 7.2206ZM15.1627 7.44382V14.8013H15.6627V7.44382H15.1627ZM16.2155 14.9257C15.9881 14.7741 15.7463 14.6541 15.496 14.5656L15.3294 15.037C15.541 15.1118 15.7456 15.2134 15.9381 15.3417L16.2155 14.9257ZM16.8221 15.3301L16.2155 14.9257L15.9381 15.3417L16.5448 15.7461L16.8221 15.3301ZM17.9881 14.7061C17.9881 15.3051 17.3205 15.6624 16.8221 15.3301L16.5448 15.7461C17.3754 16.2999 18.4881 15.7044 18.4881 14.7061H17.9881ZM17.9881 9.86262V14.7061H18.4881V9.86262H17.9881ZM17.6542 9.23858C17.8628 9.37768 17.9881 9.61186 17.9881 9.86262H18.4881C18.4881 9.44468 18.2793 9.05439 17.9315 8.82256L17.6542 9.23858ZM15.274 7.65183L17.6542 9.23858L17.9315 8.82256L15.5514 7.23581L15.274 7.65183ZM13.6627 14.8013V7.44382H13.1627V14.8013H13.6627ZM11.39 9.09272L13.5514 7.65183L13.274 7.23581L11.1127 8.67669L11.39 9.09272ZM10.6706 9.45284C10.9209 9.36436 11.1627 9.2443 11.39 9.09272L11.1127 8.67669C10.9201 8.80506 10.7156 8.90662 10.5039 8.98143L10.6706 9.45284ZM10.8373 16.5746V9.21713H10.3373V16.5746H10.8373ZM12.6099 14.9257L10.4486 16.3666L10.7259 16.7826L12.8873 15.3417L12.6099 14.9257ZM13.3294 14.5656C13.0791 14.6541 12.8373 14.7741 12.6099 14.9257L12.8873 15.3417C13.0798 15.2134 13.2844 15.1118 13.496 15.037L13.3294 14.5656ZM8.6706 8.98143C8.45899 8.90662 8.2544 8.80506 8.06184 8.67669L7.78449 9.09272C8.01186 9.2443 8.25369 9.36436 8.50394 9.45284L8.6706 8.98143ZM8.83727 16.8251V9.21713H8.33727V16.8251H8.83727ZM6.20283 15.9124L8.47547 17.0487L8.69907 16.6015L6.42643 15.4652L6.20283 15.9124ZM5.51184 14.7943C5.51184 15.2678 5.77934 15.7006 6.20282 15.9124L6.42643 15.4652C6.17234 15.3381 6.01184 15.0784 6.01184 14.7943H5.51184ZM5.51184 9.31233V14.7943H6.01184V9.31233H5.51184ZM7.45522 8.27227C6.62452 7.71848 5.51184 8.31397 5.51184 9.31233H6.01184C6.01184 8.71331 6.67945 8.35602 7.17787 8.6883L7.45522 8.27227ZM8.06184 8.67669L7.45522 8.27227L7.17787 8.6883L7.78449 9.09272L8.06184 8.67669ZM16.2155 5.27484C15.1238 4.54706 13.7016 4.54706 12.6099 5.27484L12.8873 5.69087C13.811 5.07505 15.0144 5.07505 15.9381 5.69087L16.2155 5.27484ZM19.0409 7.15846L16.2155 5.27484L15.9381 5.69087L18.7636 7.57448L19.0409 7.15846ZM20.4881 9.86262C20.4881 8.77597 19.945 7.76122 19.0409 7.15846L18.7636 7.57448C19.5286 8.08451 19.9881 8.94315 19.9881 9.86262H20.4881ZM20.4881 14.7061V9.86262H19.9881V14.7061H20.4881ZM15.4354 17.4102C17.5952 18.8501 20.4881 17.3018 20.4881 14.7061H19.9881C19.9881 16.9025 17.5402 18.2126 15.7127 16.9942L15.4354 17.4102ZM14.8287 17.0058L15.4354 17.4102L15.7127 16.9942L15.1061 16.5898L14.8287 17.0058ZM13.9967 17.0058C14.2486 16.8379 14.5768 16.8379 14.8287 17.0058L15.1061 16.5898C14.6862 16.3099 14.1392 16.3099 13.7193 16.5898L13.9967 17.0058ZM11.2464 18.8394L13.9967 17.0058L13.7193 16.5898L10.969 18.4233L11.2464 18.8394ZM7.99014 19.0421C9.0333 19.5637 10.276 19.4863 11.2464 18.8394L10.969 18.4233C10.1479 18.9707 9.09642 19.0362 8.21375 18.5949L7.99014 19.0421ZM5.3084 17.7012L7.99014 19.0421L8.21375 18.5949L5.532 17.254L5.3084 17.7012ZM3.51184 14.7943C3.51184 16.0253 4.20735 17.1507 5.3084 17.7012L5.532 17.254C4.60035 16.7882 4.01184 15.836 4.01184 14.7943H3.51184ZM3.51184 9.31233V14.7943H4.01184V9.31233H3.51184ZM8.56462 6.60817C6.40482 5.16831 3.51184 6.71657 3.51184 9.31233H4.01184C4.01184 7.11592 6.45974 5.80585 8.28727 7.0242L8.56462 6.60817ZM9.17124 7.01259L8.56462 6.60817L8.28727 7.0242L8.89389 7.42862L9.17124 7.01259ZM10.0033 7.01259C9.75137 7.18054 9.42317 7.18054 9.17124 7.01259L8.89389 7.42862C9.31377 7.70853 9.86077 7.70853 10.2806 7.42862L10.0033 7.01259ZM12.6099 5.27484L10.0033 7.01259L10.2806 7.42862L12.8873 5.69087L12.6099 5.27484Z" fill="white"/>
</svg>
