<svg width="52" height="52" viewBox="0 0 52 52" fill="none" xmlns="http://www.w3.org/2000/svg">
<g filter="url(#filter0_d_122_2224)">
<circle cx="26" cy="24" r="17.5" fill="white" stroke="#E2E2E2"/>
<path d="M25.25 18.6C25.25 19.0142 25.5858 19.35 26 19.35C26.4142 19.35 26.75 19.0142 26.75 18.6H25.25ZM26.75 15C26.75 14.5858 26.4142 14.25 26 14.25C25.5858 14.25 25.25 14.5858 25.25 15H26.75ZM25.25 33C25.25 33.4142 25.5858 33.75 26 33.75C26.4142 33.75 26.75 33.4142 26.75 33H25.25ZM26.75 29.4C26.75 28.9858 26.4142 28.65 26 28.65C25.5858 28.65 25.25 28.9858 25.25 29.4H26.75ZM31.4 23.25C30.9858 23.25 30.65 23.5858 30.65 24C30.65 24.4142 30.9858 24.75 31.4 24.75V23.25ZM35 24.75C35.4142 24.75 35.75 24.4142 35.75 24C35.75 23.5858 35.4142 23.25 35 23.25V24.75ZM17 23.25C16.5858 23.25 16.25 23.5858 16.25 24C16.25 24.4142 16.5858 24.75 17 24.75V23.25ZM20.6 24.75C21.0142 24.75 21.35 24.4142 21.35 24C21.35 23.5858 21.0142 23.25 20.6 23.25V24.75ZM32.45 23.9999C32.45 27.5622 29.5622 30.4499 26 30.4499V31.9499C30.3907 31.9499 33.95 28.3906 33.95 23.9999H32.45ZM26 30.4499C22.4378 30.4499 19.55 27.5622 19.55 23.9999H18.05C18.05 28.3906 21.6093 31.9499 26 31.9499V30.4499ZM19.55 23.9999C19.55 20.4377 22.4378 17.5499 26 17.5499V16.0499C21.6093 16.0499 18.05 19.6093 18.05 23.9999H19.55ZM26 17.5499C29.5622 17.5499 32.45 20.4377 32.45 23.9999H33.95C33.95 19.6093 30.3907 16.0499 26 16.0499V17.5499ZM26.75 18.6V15H25.25V18.6H26.75ZM26.75 33V29.4H25.25V33H26.75ZM31.4 24.75H35V23.25H31.4V24.75ZM17 24.75H20.6V23.25H17V24.75ZM27.95 24C27.95 25.077 27.077 25.95 26 25.95V27.45C27.9054 27.45 29.45 25.9054 29.45 24H27.95ZM26 25.95C24.923 25.95 24.05 25.077 24.05 24H22.55C22.55 25.9054 24.0946 27.45 26 27.45V25.95ZM24.05 24C24.05 22.923 24.923 22.05 26 22.05V20.55C24.0946 20.55 22.55 22.0946 22.55 24H24.05ZM26 22.05C27.077 22.05 27.95 22.923 27.95 24H29.45C29.45 22.0946 27.9054 20.55 26 20.55V22.05Z" fill="#3978F2"/>
</g>
<defs>
<filter id="filter0_d_122_2224" x="0" y="0" width="52" height="52" filterUnits="userSpaceOnUse" color-interpolation-filters="sRGB">
<feFlood flood-opacity="0" result="BackgroundImageFix"/>
<feColorMatrix in="SourceAlpha" type="matrix" values="0 0 0 0 0 0 0 0 0 0 0 0 0 0 0 0 0 0 127 0" result="hardAlpha"/>
<feOffset dy="2"/>
<feGaussianBlur stdDeviation="4"/>
<feComposite in2="hardAlpha" operator="out"/>
<feColorMatrix type="matrix" values="0 0 0 0 0 0 0 0 0 0 0 0 0 0 0 0 0 0 0.1 0"/>
<feBlend mode="normal" in2="BackgroundImageFix" result="effect1_dropShadow_122_2224"/>
<feBlend mode="normal" in="SourceGraphic" in2="effect1_dropShadow_122_2224" result="shape"/>
</filter>
</defs>
</svg>
