<svg width="24" height="24" viewBox="0 0 24 24" fill="none" xmlns="http://www.w3.org/2000/svg">
<g id="smiley-happy">
<path id="Icon" d="M9.12002 9.11999V8.11999C8.56774 8.11999 8.12002 8.56771 8.12002 9.11999H9.12002ZM9.21565 9.11999H10.2156C10.2156 8.56771 9.76793 8.11999 9.21565 8.11999V9.11999ZM14.88 9.11999V8.11999C14.3277 8.11999 13.88 8.56771 13.88 9.11999H14.88ZM14.965 9.11999H15.965C15.965 8.56771 15.5173 8.11999 14.965 8.11999V9.11999ZM9.21565 9.19687V10.1969C9.76793 10.1969 10.2156 9.74915 10.2156 9.19687H9.21565ZM9.12002 9.19687H8.12002C8.12002 9.74915 8.56774 10.1969 9.12002 10.1969V9.19687ZM14.965 9.19687V10.1969C15.5173 10.1969 15.965 9.74915 15.965 9.19687H14.965ZM14.88 9.19687H13.88C13.88 9.74915 14.3277 10.1969 14.88 10.1969V9.19687ZM9.52226 14.3928C9.23157 13.9232 8.61525 13.7782 8.14565 14.0689C7.67605 14.3596 7.53101 14.9759 7.82169 15.4455L9.52226 14.3928ZM16.1784 15.4455C16.469 14.9759 16.324 14.3596 15.8544 14.0689C15.3848 13.7782 14.7685 13.9232 14.4778 14.3928L16.1784 15.4455ZM20.6 12C20.6 16.7496 16.7497 20.6 12 20.6V22.6C17.8542 22.6 22.6 17.8542 22.6 12H20.6ZM12 20.6C7.25037 20.6 3.40002 16.7496 3.40002 12H1.40002C1.40002 17.8542 6.14581 22.6 12 22.6V20.6ZM3.40002 12C3.40002 7.25034 7.25037 3.39999 12 3.39999V1.39999C6.14581 1.39999 1.40002 6.14577 1.40002 12H3.40002ZM12 3.39999C16.7497 3.39999 20.6 7.25034 20.6 12H22.6C22.6 6.14577 17.8542 1.39999 12 1.39999V3.39999ZM9.12002 10.12H9.21565V8.11999H9.12002V10.12ZM14.88 10.12H14.965V8.11999H14.88V10.12ZM8.21565 9.11999V9.19687H10.2156V9.11999H8.21565ZM9.21565 8.19687H9.12002V10.1969H9.21565V8.19687ZM10.12 9.19687V9.11999H8.12002V9.19687H10.12ZM13.965 9.11999V9.19687H15.965V9.11999H13.965ZM14.965 8.19687H14.88V10.1969H14.965V8.19687ZM15.88 9.19687V9.11999H13.88V9.19687H15.88ZM12 15.7999C10.9702 15.7999 10.0524 15.2492 9.52226 14.3928L7.82169 15.4455C8.69145 16.8506 10.2315 17.7999 12 17.7999V15.7999ZM14.4778 14.3928C13.9477 15.2492 13.0298 15.7999 12 15.7999V17.7999C13.7686 17.7999 15.3086 16.8506 16.1784 15.4455L14.4778 14.3928Z" fill="#FF5A5A"/>
</g>
</svg>
