<svg width="24" height="24" viewBox="0 0 24 24" fill="currentColor" xmlns="http://www.w3.org/2000/svg">
<path fill-rule="evenodd" clip-rule="evenodd" d="M6 5C4.89543 5 4 5.89543 4 7V15C4 16.1046 4.89543 17 6 17H8.17157C8.70201 17 9.21071 17.2107 9.58579 17.5858L11.2929 19.2929C11.6834 19.6834 12.3166 19.6834 12.7071 19.2929L14.7071 17.2929C14.8946 17.1054 15.149 17 15.4142 17H18C19.1046 17 20 16.1046 20 15V7C20 5.89543 19.1046 5 18 5H6ZM9 10C8.44772 10 8 10.4477 8 11C8 11.5523 8.44772 12 9 12L15 12C15.5523 12 16 11.5523 16 11C16 10.4477 15.5523 10 15 10L9 10Z" fill="currentColor"/>
</svg>
