<svg width="24" height="24" viewBox="0 0 24 24" fill="currentColor" xmlns="http://www.w3.org/2000/svg">
<path fill-rule="evenodd" clip-rule="evenodd" d="M3 19.0001V10.8982C3 10.327 3.2443 9.78296 3.67127 9.40343L10.6713 3.18121C11.429 2.50763 12.571 2.50763 13.3287 3.18121L20.3287 9.40343C20.7557 9.78296 21 10.327 21 10.8982V19.0001C21 20.657 19.6569 22.0001 18 22.0001H6C4.34315 22.0001 3 20.657 3 19.0001ZM8 16.0001C7.44772 16.0001 7 16.4478 7 17.0001C7 17.5524 7.44772 18.0001 8 18.0001H16C16.5523 18.0001 17 17.5524 17 17.0001C17 16.4478 16.5523 16.0001 16 16.0001H8Z"  fill="currentColor"/>
</svg>
