<svg width="24" height="24" viewBox="0 0 24 24" fill="none" xmlns="http://www.w3.org/2000/svg">
<g id="icn-image">
<path id="Icon" d="M7.1999 6.12001V7.12001C7.55557 7.12001 7.88447 6.93109 8.06368 6.62388L7.1999 6.12001ZM8.8799 3.24001V2.24001C8.52423 2.24001 8.19533 2.42892 8.01612 2.73613L8.8799 3.24001ZM15.1199 3.24001L15.9837 2.73613C15.8045 2.42892 15.4756 2.24001 15.1199 2.24001V3.24001ZM16.7999 6.12001L15.9361 6.62388C16.1153 6.93109 16.4442 7.12001 16.7999 7.12001V6.12001ZM3.3999 18.36V8.52H1.3999V18.36H3.3999ZM4.7999 7.12001H7.1999V5.12001H4.7999V7.12001ZM8.06368 6.62388L9.74368 3.74388L8.01612 2.73613L6.33612 5.61613L8.06368 6.62388ZM8.8799 4.24001H15.1199V2.24001H8.8799V4.24001ZM14.2561 3.74388L15.9361 6.62388L17.6637 5.61613L15.9837 2.73613L14.2561 3.74388ZM16.7999 7.12001H19.1999V5.12001H16.7999V7.12001ZM20.5999 8.52001V18.36H22.5999V8.52001H20.5999ZM20.5999 18.36C20.5999 19.1332 19.9731 19.76 19.1999 19.76V21.76C21.0777 21.76 22.5999 20.2378 22.5999 18.36H20.5999ZM19.1999 7.12001C19.9731 7.12001 20.5999 7.74681 20.5999 8.52001H22.5999C22.5999 6.64224 21.0777 5.12001 19.1999 5.12001V7.12001ZM3.3999 8.52C3.3999 7.74681 4.0267 7.12001 4.7999 7.12001V5.12001C2.92213 5.12001 1.3999 6.64223 1.3999 8.52H3.3999ZM4.7999 19.76C4.0267 19.76 3.3999 19.1332 3.3999 18.36H1.3999C1.3999 20.2378 2.92213 21.76 4.7999 21.76V19.76ZM14.5999 12.84C14.5999 14.2759 13.4358 15.44 11.9999 15.44V17.44C14.5404 17.44 16.5999 15.3805 16.5999 12.84H14.5999ZM11.9999 15.44C10.564 15.44 9.3999 14.2759 9.3999 12.84H7.3999C7.3999 15.3805 9.45939 17.44 11.9999 17.44V15.44ZM9.3999 12.84C9.3999 11.4041 10.564 10.24 11.9999 10.24V8.24001C9.45939 8.24001 7.3999 10.2995 7.3999 12.84H9.3999ZM11.9999 10.24C13.4358 10.24 14.5999 11.4041 14.5999 12.84H16.5999C16.5999 10.2995 14.5404 8.24001 11.9999 8.24001V10.24ZM19.1999 19.76H4.7999V21.76H19.1999V19.76Z" fill="#E2E2E2"/>
</g>
</svg>
