<svg width="183" height="28" viewBox="0 0 183 28" fill="none" xmlns="http://www.w3.org/2000/svg">
<g clip-path="url(#clip0_32_2106)">
<path d="M100.349 0H94.8973V28H100.349V0Z" fill="#FF5A5A"/>
<path d="M41.8651 7.49405V17.748C41.8645 20.3586 39.766 22.4821 37.1864 22.4821C34.6068 22.4821 32.5077 20.3579 32.5077 17.7467V7.49405H27.0563V17.747C27.0563 19.4979 27.5001 21.2267 28.34 22.7459C29.1083 24.1361 30.1971 25.3364 31.499 26.2324V26.2372L31.7313 26.3879L32.5077 26.8909V26.8429C33.9461 27.6022 35.5469 28 37.1864 28C38.8259 28 40.4264 27.6022 41.8651 26.8429V28H47.3165V7.49405H41.8651Z" fill="#FF5A5A"/>
<path d="M181.716 12.7482C180.948 11.358 179.859 10.1577 178.557 9.26164V9.25687L178.325 9.10611L177.549 8.60313V8.65112C176.11 7.89188 174.509 7.49405 172.87 7.49405C171.23 7.49405 169.63 7.89188 168.191 8.65112V8.60313L167.415 9.10611L167.182 9.25687V9.26164C166.556 9.69248 165.98 10.1944 165.465 10.7532C164.949 10.1944 164.373 9.69248 163.747 9.26164V9.25687L163.514 9.10611L162.738 8.60313V8.65112C161.3 7.89188 159.699 7.49405 158.059 7.49405C156.42 7.49405 154.819 7.89188 153.381 8.65112V7.49405H147.929V27.9997H153.381V17.7457C153.381 15.1351 155.48 13.0116 158.059 13.0116C160.639 13.0116 162.738 15.1358 162.738 17.747V28H168.191V17.747C168.191 15.1358 170.29 13.0116 172.87 13.0116C175.449 13.0116 177.548 15.1358 177.548 17.747V28H183V17.747C183 15.9961 182.556 14.2673 181.716 12.7482H181.716Z" fill="#FF5A5A"/>
<path d="M59.8 7.49405C57.0943 7.49405 54.5503 8.56059 52.6371 10.497C50.7239 12.4334 49.6702 15.0082 49.6702 17.7467C49.6702 20.4852 50.7239 23.06 52.6371 24.9964C54.5503 26.9328 57.0943 27.9993 59.8 27.9993C62.5057 27.9993 65.0496 26.9328 66.9628 24.9964C68.876 23.06 69.9298 20.4852 69.9298 17.7467C69.9298 15.0082 68.876 12.4334 66.9628 10.497C65.0496 8.56059 62.5057 7.49405 59.8 7.49405ZM64.4787 17.747C64.4787 20.3583 62.3799 22.4825 59.8 22.4825C57.22 22.4825 55.1212 20.3583 55.1212 17.747C55.1212 15.1358 57.22 13.0116 59.8 13.0116C62.3799 13.0116 64.4787 15.1358 64.4787 17.747Z" fill="#FF5A5A"/>
<path d="M82.4136 7.49405C80.7573 7.49405 79.1622 7.89426 77.7348 8.64839V0H72.2834V28H77.7348V26.8457C79.1622 27.5998 80.7573 28 82.4136 28C85.1193 28 87.6632 26.9335 89.5768 24.9971C91.4903 23.0607 92.5437 20.4859 92.5437 17.747C92.5437 15.0082 91.4899 12.4337 89.5768 10.497C87.6636 8.56025 85.1196 7.49405 82.4136 7.49405ZM87.0923 17.747C87.0923 20.3583 84.9935 22.4825 82.4136 22.4825C79.8336 22.4825 77.7348 20.3583 77.7348 17.747C77.7348 15.1358 79.8336 13.0116 82.4136 13.0116C84.9935 13.0116 87.0923 15.1358 87.0923 17.747Z" fill="#FF5A5A"/>
<path d="M112.833 7.49405C110.127 7.49405 107.583 8.56059 105.669 10.497C103.756 12.4334 102.702 15.0082 102.702 17.747C102.702 20.4859 103.756 23.0603 105.669 24.9971C107.583 26.9338 110.126 28 112.833 28C115.539 28 118.082 26.9335 119.995 24.9971C121.909 23.0607 122.962 20.4859 122.962 17.7474C122.962 15.0089 121.909 12.434 119.995 10.4977C118.082 8.56127 115.538 7.49473 112.833 7.49473V7.49405ZM117.511 17.747C117.511 20.3582 115.412 22.4825 112.833 22.4825C110.253 22.4825 108.154 20.3582 108.154 17.747C108.154 15.1358 110.253 13.0116 112.833 13.0116C115.412 13.0116 117.511 15.1358 117.511 17.747Z" fill="#FF5A5A"/>
<path d="M135.446 7.49405C132.74 7.49405 130.196 8.56059 128.283 10.497C126.37 12.4334 125.316 15.0082 125.316 17.7467C125.316 20.4852 126.37 23.06 128.283 24.9964C130.196 26.9328 132.74 27.9993 135.446 27.9993C138.152 27.9993 140.696 26.9328 142.609 24.9964C144.522 23.06 145.576 20.4852 145.576 17.7467C145.576 15.0082 144.522 12.4334 142.609 10.497C140.696 8.56059 138.152 7.49405 135.446 7.49405ZM140.125 17.747C140.125 20.3583 138.026 22.4825 135.446 22.4825C132.866 22.4825 130.767 20.3583 130.767 17.747C130.767 15.1358 132.866 13.0116 135.446 13.0116C138.026 13.0116 140.125 15.1358 140.125 17.747Z" fill="#FF5A5A"/>
<path d="M16.6121 1.2595C14.8045 0.423691 12.8728 0 10.8705 0H0V28H10.8705C12.8728 28 14.8048 27.5763 16.6121 26.7405C18.3582 25.9333 19.8951 24.7868 21.1802 23.3336C23.4518 20.7649 24.7026 17.4503 24.7026 14.0002C24.7026 10.5501 23.4515 7.23541 21.1802 4.66672C19.8951 3.21324 18.3582 2.06707 16.6121 1.25984V1.2595ZM19.2512 13.9998C19.2512 16.2656 18.3794 18.3957 16.7963 19.9979C15.2133 21.6001 13.1088 22.4822 10.8702 22.4822H5.45106V5.51751H10.8702C13.1088 5.51751 15.2133 6.39994 16.7963 8.0018C18.3794 9.604 19.2512 11.734 19.2512 13.9998Z" fill="#FF5A5A"/>
<path d="M177.549 0H179.713V0.464869H178.906V2.66704H178.356V0.464869H177.549V0H177.549Z" fill="#FF5A5A"/>
<path d="M180.831 0L181.556 1.79209H181.587L182.313 0H183V2.66704H182.46V0.931099H182.438L181.756 2.65411H181.388L180.706 0.924633H180.684V2.66704H180.144V0H180.831H180.831Z" fill="#FF5A5A"/>
</g>
<defs>
<clipPath id="clip0_32_2106">
<rect width="183" height="28" fill="white"/>
</clipPath>
</defs>
</svg>
